<svg height="1864" overflow="visible" viewbox="0 0 100 100" xmlns="http://www.w3.org/2000/svg">
<g>
<text x="50" y="20">
Operations executed
</text>
</g>
<g name="servers">
<g name="server-name-0" overflow="visible">
<text font-size="10" x="81" y="35">
Server-1
</text>
<line x1="81" x2="121" y1="35" y2="35"/>
<g overflow="visible">
<rect fill="red" height="6" width="8" x="80" y="40"/>
<rect fill="red" height="9" width="8" x="80" y="88"/>
<rect fill="red" height="3" width="8" x="80" y="97"/>
<rect fill="red" height="3" width="8" x="80" y="101"/>
<rect fill="red" height="3" width="8" x="80" y="104"/>
<rect fill="red" height="2" width="8" x="80" y="108"/>
<rect fill="red" height="7" width="8" x="80" y="139"/>
<rect fill="red" height="2" width="8" x="80" y="146"/>
<rect fill="red" height="7" width="8" x="80" y="161"/>
<rect fill="red" height="2" width="8" x="80" y="168"/>
<rect fill="red" height="8" width="8" x="80" y="219"/>
<rect fill="red" height="2" width="8" x="80" y="227"/>
<rect fill="red" height="7" width="8" x="80" y="249"/>
<rect fill="red" height="2" width="8" x="80" y="257"/>
<rect fill="red" height="2" width="8" x="80" y="259"/>
<rect fill="red" height="9" width="8" x="80" y="277"/>
<rect fill="red" height="6" width="8" x="80" y="293"/>
<rect fill="red" height="6" width="8" x="80" y="330"/>
<rect fill="red" height="7" width="8" x="80" y="360"/>
<rect fill="red" height="2" width="8" x="80" y="367"/>
<rect fill="red" height="7" width="8" x="80" y="432"/>
<rect fill="red" height="5" width="8" x="80" y="467"/>
<rect fill="red" height="8" width="8" x="80" y="487"/>
<rect fill="red" height="2" width="8" x="80" y="495"/>
<rect fill="red" height="6" width="8" x="80" y="513"/>
<rect fill="red" height="7" width="8" x="80" y="533"/>
<rect fill="red" height="8" width="8" x="80" y="552"/>
<rect fill="red" height="9" width="8" x="80" y="569"/>
<rect fill="red" height="7" width="8" x="80" y="586"/>
<rect fill="red" height="3" width="8" x="80" y="593"/>
<rect fill="red" height="8" width="8" x="80" y="607"/>
<rect fill="red" height="2" width="8" x="80" y="616"/>
<rect fill="red" height="2" width="8" x="80" y="618"/>
<rect fill="red" height="3" width="8" x="80" y="620"/>
<rect fill="red" height="6" width="8" x="80" y="632"/>
<rect fill="red" height="8" width="8" x="80" y="684"/>
<rect fill="red" height="9" width="8" x="80" y="700"/>
<rect fill="red" height="9" width="8" x="80" y="718"/>
<rect fill="red" height="8" width="8" x="80" y="762"/>
<rect fill="red" height="2" width="8" x="80" y="770"/>
<rect fill="red" height="3" width="8" x="80" y="772"/>
<rect fill="red" height="7" width="8" x="80" y="793"/>
<rect fill="red" height="3" width="8" x="80" y="801"/>
<rect fill="red" height="8" width="8" x="80" y="820"/>
<rect fill="red" height="9" width="8" x="80" y="888"/>
<rect fill="red" height="10" width="8" x="80" y="939"/>
<rect fill="red" height="8" width="8" x="80" y="960"/>
<rect fill="red" height="3" width="8" x="80" y="968"/>
<rect fill="red" height="8" width="8" x="80" y="989"/>
<rect fill="red" height="8" width="8" x="80" y="1020"/>
<rect fill="red" height="12" width="8" x="80" y="1058"/>
<rect fill="red" height="7" width="8" x="80" y="1097"/>
<rect fill="red" height="7" width="8" x="80" y="1124"/>
<rect fill="red" height="9" width="8" x="80" y="1142"/>
<rect fill="red" height="8" width="8" x="80" y="1159"/>
<rect fill="red" height="10" width="8" x="80" y="1176"/>
<rect fill="red" height="3" width="8" x="80" y="1187"/>
<rect fill="red" height="7" width="8" x="80" y="1233"/>
<rect fill="red" height="3" width="8" x="80" y="1241"/>
<rect fill="red" height="10" width="8" x="80" y="1293"/>
<rect fill="red" height="2" width="8" x="80" y="1304"/>
<rect fill="red" height="7" width="8" x="80" y="1332"/>
<rect fill="red" height="9" width="8" x="80" y="1350"/>
<rect fill="red" height="2" width="8" x="80" y="1359"/>
<rect fill="red" height="8" width="8" x="80" y="1376"/>
<rect fill="red" height="7" width="8" x="80" y="1420"/>
<rect fill="red" height="9" width="8" x="80" y="1437"/>
<rect fill="red" height="8" width="8" x="80" y="1472"/>
<rect fill="red" height="2" width="8" x="80" y="1481"/>
<rect fill="red" height="2" width="8" x="80" y="1483"/>
<rect fill="red" height="3" width="8" x="80" y="1486"/>
<rect fill="red" height="7" width="8" x="80" y="1501"/>
<rect fill="red" height="7" width="8" x="80" y="1525"/>
<rect fill="red" height="3" width="8" x="80" y="1532"/>
<rect fill="red" height="3" width="8" x="80" y="1535"/>
<rect fill="red" height="8" width="8" x="80" y="1548"/>
<rect fill="red" height="8" width="8" x="80" y="1566"/>
<rect fill="red" height="3" width="8" x="80" y="1575"/>
<rect fill="red" height="2" width="8" x="80" y="1578"/>
<rect fill="red" height="2" width="8" x="80" y="1580"/>
<rect fill="red" height="2" width="8" x="80" y="1583"/>
<rect fill="red" height="9" width="8" x="80" y="1610"/>
<rect fill="red" height="1" width="8" x="80" y="1619"/>
<rect fill="red" height="6" width="8" x="80" y="1658"/>
<rect fill="red" height="8" width="8" x="80" y="1692"/>
<rect fill="red" height="3" width="8" x="80" y="1701"/>
<rect fill="red" height="7" width="8" x="80" y="1719"/>
<rect fill="red" height="8" width="8" x="80" y="1734"/>
<rect fill="red" height="3" width="8" x="80" y="1742"/>
<rect fill="red" height="8" width="8" x="80" y="1753"/>
<rect fill="red" height="8" width="8" x="80" y="1772"/>
<rect fill="red" height="6" width="8" x="80" y="1809"/>
<rect fill="red" height="9" width="8" x="80" y="1842"/>
<rect fill="red" height="2" width="8" x="80" y="1851"/>
</g>
<line stroke="black" x1="80" x2="80" y1="30" y2="1864"/>
</g>
<g name="server-name-1" overflow="visible">
<text font-size="10" x="121" y="35">
Server-2
</text>
<line x1="121" x2="161" y1="35" y2="35"/>
<g overflow="visible">
<rect fill="red" height="9" width="8" x="120" y="47"/>
<rect fill="red" height="8" width="8" x="120" y="65"/>
<rect fill="red" height="5" width="8" x="120" y="83"/>
<rect fill="red" height="8" width="8" x="120" y="110"/>
<rect fill="red" height="6" width="8" x="120" y="155"/>
<rect fill="red" height="7" width="8" x="120" y="178"/>
<rect fill="red" height="3" width="8" x="120" y="185"/>
<rect fill="red" height="2" width="8" x="120" y="188"/>
<rect fill="red" height="2" width="8" x="120" y="191"/>
<rect fill="red" height="6" width="8" x="120" y="201"/>
<rect fill="red" height="8" width="8" x="120" y="239"/>
<rect fill="red" height="1" width="8" x="120" y="247"/>
<rect fill="red" height="8" width="8" x="120" y="269"/>
<rect fill="red" height="6" width="8" x="120" y="300"/>
<rect fill="red" height="6" width="8" x="120" y="323"/>
<rect fill="red" height="8" width="8" x="120" y="337"/>
<rect fill="red" height="2" width="8" x="120" y="345"/>
<rect fill="red" height="8" width="8" x="120" y="370"/>
<rect fill="red" height="6" width="8" x="120" y="401"/>
<rect fill="red" height="6" width="8" x="120" y="419"/>
<rect fill="red" height="9" width="8" x="120" y="440"/>
<rect fill="red" height="3" width="8" x="120" y="449"/>
<rect fill="red" height="2" width="8" x="120" y="452"/>
<rect fill="red" height="2" width="8" x="120" y="455"/>
<rect fill="red" height="2" width="8" x="120" y="458"/>
<rect fill="red" height="10" width="8" x="120" y="473"/>
<rect fill="red" height="2" width="8" x="120" y="484"/>
<rect fill="red" height="7" width="8" x="120" y="520"/>
<rect fill="red" height="2" width="8" x="120" y="527"/>
<rect fill="red" height="2" width="8" x="120" y="530"/>
<rect fill="red" height="8" width="8" x="120" y="561"/>
<rect fill="red" height="7" width="8" x="120" y="578"/>
<rect fill="red" height="7" width="8" x="120" y="651"/>
<rect fill="red" height="2" width="8" x="120" y="659"/>
<rect fill="red" height="2" width="8" x="120" y="661"/>
<rect fill="red" height="2" width="8" x="120" y="664"/>
<rect fill="red" height="9" width="8" x="120" y="675"/>
<rect fill="red" height="7" width="8" x="120" y="693"/>
<rect fill="red" height="8" width="8" x="120" y="739"/>
<rect fill="red" height="3" width="8" x="120" y="747"/>
<rect fill="red" height="3" width="8" x="120" y="751"/>
<rect fill="red" height="7" width="8" x="120" y="775"/>
<rect fill="red" height="3" width="8" x="120" y="782"/>
<rect fill="red" height="9" width="8" x="120" y="828"/>
<rect fill="red" height="9" width="8" x="120" y="853"/>
<rect fill="red" height="3" width="8" x="120" y="863"/>
<rect fill="red" height="2" width="8" x="120" y="866"/>
<rect fill="red" height="2" width="8" x="120" y="869"/>
<rect fill="red" height="7" width="8" x="120" y="881"/>
<rect fill="red" height="10" width="8" x="120" y="898"/>
<rect fill="red" height="8" width="8" x="120" y="923"/>
<rect fill="red" height="9" width="8" x="120" y="971"/>
<rect fill="red" height="9" width="8" x="120" y="1008"/>
<rect fill="red" height="3" width="8" x="120" y="1017"/>
<rect fill="red" height="9" width="8" x="120" y="1042"/>
<rect fill="red" height="3" width="8" x="120" y="1052"/>
<rect fill="red" height="3" width="8" x="120" y="1055"/>
<rect fill="red" height="8" width="8" x="120" y="1079"/>
<rect fill="red" height="11" width="8" x="120" y="1105"/>
<rect fill="red" height="10" width="8" x="120" y="1132"/>
<rect fill="red" height="8" width="8" x="120" y="1168"/>
<rect fill="red" height="10" width="8" x="120" y="1199"/>
<rect fill="red" height="8" width="8" x="120" y="1218"/>
<rect fill="red" height="3" width="8" x="120" y="1226"/>
<rect fill="red" height="3" width="8" x="120" y="1230"/>
<rect fill="red" height="8" width="8" x="120" y="1252"/>
<rect fill="red" height="8" width="8" x="120" y="1268"/>
<rect fill="red" height="7" width="8" x="120" y="1286"/>
<rect fill="red" height="7" width="8" x="120" y="1314"/>
<rect fill="red" height="10" width="8" x="120" y="1340"/>
<rect fill="red" height="8" width="8" x="120" y="1361"/>
<rect fill="red" height="2" width="8" x="120" y="1370"/>
<rect fill="red" height="2" width="8" x="120" y="1373"/>
<rect fill="red" height="7" width="8" x="120" y="1384"/>
<rect fill="red" height="2" width="8" x="120" y="1391"/>
<rect fill="red" height="6" width="8" x="120" y="1405"/>
<rect fill="red" height="3" width="8" x="120" y="1412"/>
<rect fill="red" height="2" width="8" x="120" y="1415"/>
<rect fill="red" height="3" width="8" x="120" y="1417"/>
<rect fill="red" height="6" width="8" x="120" y="1428"/>
<rect fill="red" height="3" width="8" x="120" y="1434"/>
<rect fill="red" height="6" width="8" x="120" y="1447"/>
<rect fill="red" height="3" width="8" x="120" y="1454"/>
<rect fill="red" height="8" width="8" x="120" y="1463"/>
<rect fill="red" height="8" width="8" x="120" y="1517"/>
<rect fill="red" height="9" width="8" x="120" y="1539"/>
<rect fill="red" height="9" width="8" x="120" y="1557"/>
<rect fill="red" height="8" width="8" x="120" y="1630"/>
<rect fill="red" height="8" width="8" x="120" y="1650"/>
<rect fill="red" height="8" width="8" x="120" y="1678"/>
<rect fill="red" height="2" width="8" x="120" y="1687"/>
<rect fill="red" height="2" width="8" x="120" y="1689"/>
<rect fill="red" height="6" width="8" x="120" y="1704"/>
<rect fill="red" height="6" width="8" x="120" y="1762"/>
<rect fill="red" height="2" width="8" x="120" y="1769"/>
<rect fill="red" height="7" width="8" x="120" y="1780"/>
<rect fill="red" height="3" width="8" x="120" y="1788"/>
<rect fill="red" height="7" width="8" x="120" y="1802"/>
<rect fill="red" height="8" width="8" x="120" y="1816"/>
<rect fill="red" height="8" width="8" x="120" y="1834"/>
</g>
<line stroke="black" x1="120" x2="120" y1="30" y2="1864"/>
</g>
<g name="server-name-2" overflow="visible">
<text font-size="10" x="161" y="35">
Server-3
</text>
<line x1="161" x2="201" y1="35" y2="35"/>
<g overflow="visible">
<rect fill="red" height="9" width="8" x="160" y="56"/>
<rect fill="red" height="8" width="8" x="160" y="74"/>
<rect fill="red" height="7" width="8" x="160" y="119"/>
<rect fill="red" height="3" width="8" x="160" y="126"/>
<rect fill="red" height="2" width="8" x="160" y="130"/>
<rect fill="red" height="2" width="8" x="160" y="133"/>
<rect fill="red" height="3" width="8" x="160" y="135"/>
<rect fill="red" height="6" width="8" x="160" y="148"/>
<rect fill="red" height="6" width="8" x="160" y="171"/>
<rect fill="red" height="7" width="8" x="160" y="194"/>
<rect fill="red" height="7" width="8" x="160" y="208"/>
<rect fill="red" height="2" width="8" x="160" y="216"/>
<rect fill="red" height="7" width="8" x="160" y="229"/>
<rect fill="red" height="2" width="8" x="160" y="237"/>
<rect fill="red" height="6" width="8" x="160" y="262"/>
<rect fill="red" height="6" width="8" x="160" y="287"/>
<rect fill="red" height="7" width="8" x="160" y="307"/>
<rect fill="red" height="1" width="8" x="160" y="314"/>
<rect fill="red" height="2" width="8" x="160" y="315"/>
<rect fill="red" height="2" width="8" x="160" y="318"/>
<rect fill="red" height="1" width="8" x="160" y="321"/>
<rect fill="red" height="6" width="8" x="160" y="348"/>
<rect fill="red" height="2" width="8" x="160" y="355"/>
<rect fill="red" height="2" width="8" x="160" y="357"/>
<rect fill="red" height="5" width="8" x="160" y="378"/>
<rect fill="red" height="3" width="8" x="160" y="383"/>
<rect fill="red" height="3" width="8" x="160" y="387"/>
<rect fill="red" height="2" width="8" x="160" y="390"/>
<rect fill="red" height="2" width="8" x="160" y="393"/>
<rect fill="red" height="2" width="8" x="160" y="396"/>
<rect fill="red" height="2" width="8" x="160" y="399"/>
<rect fill="red" height="8" width="8" x="160" y="407"/>
<rect fill="red" height="2" width="8" x="160" y="416"/>
<rect fill="red" height="7" width="8" x="160" y="425"/>
<rect fill="red" height="7" width="8" x="160" y="460"/>
<rect fill="red" height="8" width="8" x="160" y="498"/>
<rect fill="red" height="2" width="8" x="160" y="507"/>
<rect fill="red" height="3" width="8" x="160" y="510"/>
<rect fill="red" height="8" width="8" x="160" y="540"/>
<rect fill="red" height="3" width="8" x="160" y="549"/>
<rect fill="red" height="8" width="8" x="160" y="597"/>
<rect fill="red" height="2" width="8" x="160" y="605"/>
<rect fill="red" height="8" width="8" x="160" y="624"/>
<rect fill="red" height="9" width="8" x="160" y="639"/>
<rect fill="red" height="2" width="8" x="160" y="648"/>
<rect fill="red" height="8" width="8" x="160" y="667"/>
<rect fill="red" height="9" width="8" x="160" y="709"/>
<rect fill="red" height="8" width="8" x="160" y="728"/>
<rect fill="red" height="3" width="8" x="160" y="736"/>
<rect fill="red" height="7" width="8" x="160" y="754"/>
<rect fill="red" height="8" width="8" x="160" y="785"/>
<rect fill="red" height="8" width="8" x="160" y="805"/>
<rect fill="red" height="2" width="8" x="160" y="813"/>
<rect fill="red" height="3" width="8" x="160" y="816"/>
<rect fill="red" height="9" width="8" x="160" y="837"/>
<rect fill="red" height="3" width="8" x="160" y="847"/>
<rect fill="red" height="3" width="8" x="160" y="850"/>
<rect fill="red" height="9" width="8" x="160" y="871"/>
<rect fill="red" height="11" width="8" x="160" y="908"/>
<rect fill="red" height="3" width="8" x="160" y="919"/>
<rect fill="red" height="7" width="8" x="160" y="931"/>
<rect fill="red" height="7" width="8" x="160" y="949"/>
<rect fill="red" height="3" width="8" x="160" y="957"/>
<rect fill="red" height="8" width="8" x="160" y="981"/>
<rect fill="red" height="10" width="8" x="160" y="998"/>
<rect fill="red" height="7" width="8" x="160" y="1028"/>
<rect fill="red" height="3" width="8" x="160" y="1036"/>
<rect fill="red" height="3" width="8" x="160" y="1039"/>
<rect fill="red" height="8" width="8" x="160" y="1071"/>
<rect fill="red" height="9" width="8" x="160" y="1088"/>
<rect fill="red" height="7" width="8" x="160" y="1117"/>
<rect fill="red" height="8" width="8" x="160" y="1151"/>
<rect fill="red" height="8" width="8" x="160" y="1190"/>
<rect fill="red" height="8" width="8" x="160" y="1209"/>
<rect fill="red" height="7" width="8" x="160" y="1244"/>
<rect fill="red" height="7" width="8" x="160" y="1260"/>
<rect fill="red" height="6" width="8" x="160" y="1276"/>
<rect fill="red" height="3" width="8" x="160" y="1282"/>
<rect fill="red" height="7" width="8" x="160" y="1306"/>
<rect fill="red" height="7" width="8" x="160" y="1321"/>
<rect fill="red" height="3" width="8" x="160" y="1329"/>
<rect fill="red" height="6" width="8" x="160" y="1394"/>
<rect fill="red" height="2" width="8" x="160" y="1400"/>
<rect fill="red" height="2" width="8" x="160" y="1403"/>
<rect fill="red" height="6" width="8" x="160" y="1457"/>
<rect fill="red" height="8" width="8" x="160" y="1489"/>
<rect fill="red" height="3" width="8" x="160" y="1498"/>
<rect fill="red" height="7" width="8" x="160" y="1509"/>
<rect fill="red" height="10" width="8" x="160" y="1586"/>
<rect fill="red" height="3" width="8" x="160" y="1596"/>
<rect fill="red" height="3" width="8" x="160" y="1600"/>
<rect fill="red" height="3" width="8" x="160" y="1603"/>
<rect fill="red" height="3" width="8" x="160" y="1606"/>
<rect fill="red" height="9" width="8" x="160" y="1621"/>
<rect fill="red" height="8" width="8" x="160" y="1639"/>
<rect fill="red" height="3" width="8" x="160" y="1647"/>
<rect fill="red" height="7" width="8" x="160" y="1665"/>
<rect fill="red" height="2" width="8" x="160" y="1673"/>
<rect fill="red" height="2" width="8" x="160" y="1675"/>
<rect fill="red" height="8" width="8" x="160" y="1710"/>
<rect fill="red" height="6" width="8" x="160" y="1727"/>
<rect fill="red" height="8" width="8" x="160" y="1745"/>
<rect fill="red" height="9" width="8" x="160" y="1791"/>
<rect fill="red" height="1" width="8" x="160" y="1800"/>
<rect fill="red" height="8" width="8" x="160" y="1825"/>
<rect fill="red" height="7" width="8" x="160" y="1854"/>
</g>
<line stroke="black" x1="160" x2="160" y1="30" y2="1864"/>
</g>
</g>
<g name="operation-timestamps">
<text font-size="10" x="10" y="40">
0ms
</text>
<line stroke="black" x1="30" x2="200" y1="40" y2="40"/>
<text font-size="10" x="10" y="140">
100ms
</text>
<line stroke="black" x1="30" x2="200" y1="140" y2="140"/>
<text font-size="10" x="10" y="240">
200ms
</text>
<line stroke="black" x1="30" x2="200" y1="240" y2="240"/>
<text font-size="10" x="10" y="340">
300ms
</text>
<line stroke="black" x1="30" x2="200" y1="340" y2="340"/>
<text font-size="10" x="10" y="440">
400ms
</text>
<line stroke="black" x1="30" x2="200" y1="440" y2="440"/>
<text font-size="10" x="10" y="540">
500ms
</text>
<line stroke="black" x1="30" x2="200" y1="540" y2="540"/>
<text font-size="10" x="10" y="640">
600ms
</text>
<line stroke="black" x1="30" x2="200" y1="640" y2="640"/>
<text font-size="10" x="10" y="740">
700ms
</text>
<line stroke="black" x1="30" x2="200" y1="740" y2="740"/>
<text font-size="10" x="10" y="840">
800ms
</text>
<line stroke="black" x1="30" x2="200" y1="840" y2="840"/>
<text font-size="10" x="10" y="940">
900ms
</text>
<line stroke="black" x1="30" x2="200" y1="940" y2="940"/>
<text font-size="10" x="10" y="1040">
1000ms
</text>
<line stroke="black" x1="30" x2="200" y1="1040" y2="1040"/>
<text font-size="10" x="10" y="1140">
1100ms
</text>
<line stroke="black" x1="30" x2="200" y1="1140" y2="1140"/>
<text font-size="10" x="10" y="1240">
1200ms
</text>
<line stroke="black" x1="30" x2="200" y1="1240" y2="1240"/>
<text font-size="10" x="10" y="1340">
1300ms
</text>
<line stroke="black" x1="30" x2="200" y1="1340" y2="1340"/>
<text font-size="10" x="10" y="1440">
1400ms
</text>
<line stroke="black" x1="30" x2="200" y1="1440" y2="1440"/>
<text font-size="10" x="10" y="1540">
1500ms
</text>
<line stroke="black" x1="30" x2="200" y1="1540" y2="1540"/>
<text font-size="10" x="10" y="1640">
1600ms
</text>
<line stroke="black" x1="30" x2="200" y1="1640" y2="1640"/>
<text font-size="10" x="10" y="1740">
1700ms
</text>
<line stroke="black" x1="30" x2="200" y1="1740" y2="1740"/>
<text font-size="10" x="10" y="1840">
1800ms
</text>
<line stroke="black" x1="30" x2="200" y1="1840" y2="1840"/>
</g>
<g name="events"/>
</svg>